<?xml version="1.0" standalone="no"?>
<!DOCTYPE svg PUBLIC "-//W3C//DTD SVG 20010904//EN"
 "http://www.w3.org/TR/2001/REC-SVG-20010904/DTD/svg10.dtd">
<svg version="1.0" xmlns="http://www.w3.org/2000/svg"
 width="750.000000pt" height="750.000000pt" viewBox="0 0 750.000000 750.000000"
 preserveAspectRatio="xMidYMid meet">

<g transform="translate(0.000000,750.000000) scale(0.100000,-0.100000)"
fill="#000000" stroke="none">
<path d="M2625 5214 c-4 -525 -5 -957 -2 -960 2 -3 601 -7 1330 -11 1190 -6
1327 -5 1332 9 4 9 3 442 -2 964 l-8 949 -1321 3 -1321 2 -8 -956z"/>
<path d="M5554 4016 c-3 -8 -1 -23 5 -33 9 -15 10 -13 11 15 0 34 -7 42 -16
18z"/>
<path d="M5553 3920 c0 -25 2 -35 4 -22 2 12 2 32 0 45 -2 12 -4 2 -4 -23z"/>
<path d="M2364 3788 c2 -55 8 -85 22 -105 10 -15 21 -34 25 -42 4 -11 48 -12
235 -10 126 2 821 2 1544 0 1313 -4 1315 -4 1333 17 23 25 49 180 28 168 -4
-3 -11 -28 -13 -55 -3 -28 -10 -57 -17 -65 -11 -13 -214 -15 -1566 -16 l-1553
-1 -8 23 c-3 12 -13 54 -20 92 l-14 71 4 -77z"/>
<path d="M5016 3321 c-24 -26 -23 -87 2 -120 14 -19 28 -26 53 -26 63 0 101
99 58 151 -18 22 -92 18 -113 -5z"/>
<path d="M5339 3327 c-27 -20 -41 -56 -34 -87 8 -35 48 -70 79 -70 23 0 68 42
79 72 9 24 -11 76 -33 88 -25 14 -72 12 -91 -3z m73 -29 c18 -15 31 -48 19
-48 -5 0 -11 -9 -14 -20 -7 -27 -62 -28 -77 -1 -14 28 -13 38 10 61 23 23 40
25 62 8z"/>
<path d="M3397 3263 c-17 -17 -2 -23 53 -23 49 0 58 3 54 15 -4 10 -21 15 -53
15 -26 0 -51 -3 -54 -7z"/>
<path d="M3151 3221 c-18 -12 3 -18 42 -13 21 3 25 7 16 13 -18 11 -40 11 -58
0z"/>
<path d="M3143 3163 c15 -2 37 -2 50 0 12 2 0 4 -28 4 -27 0 -38 -2 -22 -4z"/>
<path d="M2615 2320 l-140 -6 130 -1 c72 -1 168 2 215 6 l85 8 -75 -1 c-41 0
-138 -3 -215 -6z"/>
<path d="M3858 2313 c18 -2 45 -2 60 0 15 2 0 4 -33 4 -33 0 -45 -2 -27 -4z"/>
<path d="M3663 2303 c20 -2 54 -2 75 0 20 2 3 4 -38 4 -41 0 -58 -2 -37 -4z"/>
<path d="M5980 2281 c-14 -4 25 -6 85 -4 145 5 165 11 40 11 -55 0 -111 -3
-125 -7z"/>
<path d="M5853 2273 c9 -2 25 -2 35 0 9 3 1 5 -18 5 -19 0 -27 -2 -17 -5z"/>
<path d="M4058 2255 c-10 -10 7 -58 21 -63 11 -4 12 2 7 24 -8 32 -19 47 -28
39z"/>
<path d="M1523 2183 c4 -38 7 -130 7 -205 0 -85 4 -138 10 -138 11 0 14 309 4
373 -11 66 -27 42 -21 -30z"/>
<path d="M1794 2234 c3 -9 6 -101 6 -206 0 -147 3 -189 13 -186 16 6 20 88 12
266 -6 117 -10 142 -22 142 -10 0 -13 -6 -9 -16z"/>
<path d="M2939 2243 c-1 -4 -1 -12 1 -18 1 -5 1 -94 0 -197 0 -123 3 -188 10
-188 14 0 14 396 0 405 -5 3 -11 3 -11 -2z"/>
<path d="M2518 2038 c2 -112 8 -207 13 -212 10 -11 13 372 3 398 -16 40 -19 2
-16 -186z"/>
<path d="M3645 2224 c5 -11 11 -102 13 -204 2 -102 8 -189 13 -195 11 -11 11
339 0 382 -4 15 -13 29 -21 31 -10 4 -11 0 -5 -14z"/>
<path d="M5178 2224 c-3 -5 -1 -20 5 -34 8 -20 11 -22 14 -8 5 20 -12 55 -19
42z"/>
<path d="M4766 2198 c3 -13 10 -30 15 -38 7 -12 8 -10 9 7 0 28 -10 53 -22 53
-5 0 -6 -10 -2 -22z"/>
<path d="M6325 2183 c8 -31 13 -39 20 -31 9 9 -6 58 -17 58 -6 0 -7 -11 -3
-27z"/>
<path d="M5905 2178 c9 -27 22 -44 30 -36 8 7 -16 58 -27 58 -5 0 -6 -10 -3
-22z"/>
<path d="M4070 2010 c0 -107 4 -170 10 -170 6 0 10 63 10 170 0 107 -4 170
-10 170 -6 0 -10 -63 -10 -170z"/>
<path d="M5187 2083 c-10 -103 -8 -251 3 -258 7 -4 10 52 10 159 0 91 -2 166
-4 166 -2 0 -6 -30 -9 -67z"/>
<path d="M4778 1983 c-3 -179 6 -223 15 -76 10 140 9 233 -3 233 -5 0 -10 -67
-12 -157z"/>
<path d="M6338 2134 c-5 -4 -8 -79 -8 -168 0 -109 3 -157 10 -150 7 7 9 70 8
168 -2 87 -6 154 -10 150z"/>
<path d="M5920 1960 c0 -100 4 -160 10 -160 6 0 10 60 10 160 0 100 -4 160
-10 160 -6 0 -10 -60 -10 -160z"/>
<path d="M3880 2015 c0 -14 5 -25 10 -25 6 0 10 2 10 4 0 2 3 11 6 19 3 8 -2
17 -10 20 -12 5 -16 0 -16 -18z"/>
<path d="M3926 2031 c-8 -12 3 -41 15 -41 5 0 9 11 9 25 0 25 -14 34 -24 16z"/>
<path d="M3974 2025 c-7 -18 3 -35 22 -35 8 0 14 10 14 25 0 27 -27 35 -36 10z"/>
<path d="M2617 2024 c-11 -11 -8 -44 3 -44 15 0 24 30 13 41 -5 5 -12 6 -16 3z"/>
<path d="M2678 2018 c-6 -16 1 -38 12 -38 4 0 8 11 8 25 0 26 -13 34 -20 13z"/>
<path d="M2750 2010 c0 -11 4 -20 9 -20 11 0 22 26 14 34 -12 12 -23 5 -23
-14z"/>
<path d="M2792 2008 c2 -13 8 -23 13 -23 6 0 11 10 13 23 2 15 -2 22 -13 22
-11 0 -15 -7 -13 -22z"/>
<path d="M2843 2014 c-7 -18 11 -39 26 -30 17 11 13 46 -4 46 -9 0 -18 -7 -22
-16z m22 -4 c3 -5 1 -10 -4 -10 -6 0 -11 5 -11 10 0 6 2 10 4 10 3 0 8 -4 11
-10z"/>
<path d="M3748 2024 c-8 -8 3 -44 13 -44 5 0 9 11 9 25 0 24 -10 32 -22 19z"/>
<path d="M3810 2010 c0 -24 0 -24 34 -6 l27 13 -23 7 c-35 9 -38 8 -38 -14z"/>
<path d="M5040 2010 c-8 -5 -23 -7 -32 -4 -13 4 -18 0 -18 -15 0 -12 5 -21 10
-21 6 0 10 5 10 10 0 6 7 10 15 10 8 0 15 -4 15 -10 0 -5 4 -10 9 -10 5 0 9
11 9 25 0 14 -1 25 -2 25 0 0 -8 -5 -16 -10z"/>
<path d="M5081 2006 c-9 -10 -8 -16 4 -26 19 -16 41 1 32 24 -8 20 -21 20 -36
2z"/>
<path d="M4863 1994 c-9 -23 11 -38 26 -20 13 16 7 36 -10 36 -5 0 -12 -7 -16
-16z"/>
<path d="M4930 1990 c0 -24 15 -27 24 -4 9 22 8 24 -9 24 -8 0 -15 -9 -15 -20z"/>
<path d="M1570 1980 c0 -11 5 -20 10 -20 6 0 10 9 10 20 0 11 -4 20 -10 20 -5
0 -10 -9 -10 -20z"/>
<path d="M1662 1991 c-6 -4 -8 -11 -4 -17 10 -14 52 -13 52 2 0 14 -33 24 -48
15z"/>
<path d="M1725 1989 c-11 -16 5 -28 33 -26 16 2 27 8 27 17 0 16 -51 24 -60 9z"/>
<path d="M6006 1983 c-9 -22 10 -41 25 -26 13 13 5 43 -10 43 -5 0 -12 -8 -15
-17z"/>
<path d="M6067 1993 c-11 -10 -8 -43 3 -43 6 0 10 11 10 25 0 26 -2 29 -13 18z"/>
<path d="M6139 1989 c-6 -3 -3 -11 6 -19 12 -10 18 -10 30 0 9 7 15 8 15 2 0
-5 16 -10 35 -10 28 0 35 4 35 19 0 21 -20 25 -38 7 -8 -8 -12 -8 -12 -1 0 11
-54 12 -71 2z"/>
<path d="M1616 1975 c4 -8 10 -12 15 -9 11 6 2 24 -11 24 -5 0 -7 -7 -4 -15z"/>
<path d="M6100 1970 c0 -19 3 -21 12 -12 9 9 9 15 0 24 -9 9 -12 7 -12 -12z"/>
<path d="M2826 1947 c-26 -19 -17 -52 14 -52 18 0 26 6 28 21 4 30 -20 47 -42
31z m30 -18 c8 -14 -18 -31 -30 -19 -9 9 0 30 14 30 5 0 12 -5 16 -11z"/>
<path d="M3956 1944 c-19 -19 -17 -33 7 -48 24 -15 56 17 41 41 -15 24 -29 26
-48 7z"/>
<path d="M2622 1938 c-15 -15 -16 -45 -2 -53 6 -3 19 -3 30 0 24 8 27 50 4 59
-20 8 -18 8 -32 -6z m28 -23 c0 -8 -4 -15 -9 -15 -13 0 -22 16 -14 24 11 11
23 6 23 -9z"/>
<path d="M2722 1941 c-23 -14 -10 -46 18 -46 20 0 25 5 25 25 0 26 -20 36 -43
21z m33 -31 c-5 -8 -11 -8 -17 -2 -6 6 -7 16 -3 22 5 8 11 8 17 2 6 -6 7 -16
3 -22z"/>
<path d="M3760 1935 c-19 -23 -8 -50 20 -50 19 0 26 6 28 24 5 35 -26 53 -48
26z"/>
<path d="M3857 1944 c-13 -13 -7 -52 9 -58 22 -9 46 13 42 38 -3 21 -37 34
-51 20z"/>
<path d="M5064 1936 c-10 -26 4 -48 28 -44 17 2 23 10 23 28 0 18 -6 26 -23
28 -13 2 -25 -3 -28 -12z"/>
<path d="M4883 1933 c-21 -8 -16 -53 6 -53 28 0 47 26 31 45 -13 16 -17 17
-37 8z m27 -17 c0 -3 -4 -8 -10 -11 -5 -3 -10 -1 -10 4 0 6 5 11 10 11 6 0 10
-2 10 -4z"/>
<path d="M5004 1914 c-1 -13 2 -21 7 -18 11 6 12 31 2 37 -5 3 -9 -6 -9 -19z"/>
<path d="M1655 1919 c-4 -6 -4 -13 -1 -16 3 -4 6 -1 6 6 0 8 7 10 21 6 15 -5
19 -4 15 4 -9 14 -33 14 -41 0z"/>
<path d="M1734 1915 c-9 -23 3 -45 26 -45 16 0 20 7 20 30 0 23 -4 30 -20 30
-11 0 -23 -7 -26 -15z m36 -9 c0 -8 -4 -18 -10 -21 -5 -3 -10 3 -10 14 0 12 5
21 10 21 6 0 10 -6 10 -14z"/>
<path d="M4970 1910 c0 -11 4 -20 9 -20 5 0 7 9 4 20 -3 11 -7 20 -9 20 -2 0
-4 -9 -4 -20z"/>
<path d="M6010 1905 c-14 -17 -4 -55 15 -55 26 0 46 30 35 51 -13 23 -33 25
-50 4z"/>
<path d="M6107 1914 c-13 -13 -7 -52 9 -58 22 -9 46 13 42 38 -3 21 -37 34
-51 20z"/>
<path d="M6201 1902 c-11 -21 3 -52 24 -52 19 0 37 34 29 54 -8 21 -41 20 -53
-2z"/>
<path d="M1650 1878 c0 -5 11 -8 25 -8 14 0 25 4 25 9 0 5 -11 8 -25 7 -14 0
-25 -4 -25 -8z"/>
<path d="M880 1770 c0 -5 9 -14 19 -20 30 -15 33 -12 11 10 -22 22 -30 25 -30
10z"/>
<path d="M1926 1612 c2 -219 2 -219 22 -226 9 -3 23 -9 30 -12 9 -4 12 33 11
170 l0 176 -29 15 c-16 8 -30 15 -32 15 -2 0 -2 -62 -2 -138z m44 23 c0 -14
-6 -25 -14 -25 -9 0 -12 8 -8 25 2 14 8 25 13 25 5 0 9 -11 9 -25z m1 -70 c1
-19 2 -54 2 -77 1 -23 -3 -43 -9 -45 -19 -6 -33 103 -18 141 11 28 24 17 25
-19z"/>
<path d="M3060 1554 c0 -178 1 -184 20 -184 12 0 33 -8 47 -17 l26 -17 -6 183
c-4 102 -8 185 -9 187 -2 1 -20 9 -40 17 l-38 16 0 -185z m56 9 c15 -20 19
-103 5 -103 -5 0 -7 -9 -4 -20 8 -29 -12 -25 -25 5 -18 39 -14 135 5 135 3 0
12 -8 19 -17z"/>
<path d="M4159 1715 c-2 -2 -3 -85 -1 -184 3 -179 3 -181 25 -181 12 0 31 -7
41 -15 11 -8 24 -15 28 -15 5 0 7 82 6 182 l-3 182 -46 18 c-26 9 -48 15 -50
13z m81 -45 c0 -5 -5 -10 -11 -10 -5 0 -7 5 -4 10 3 6 8 10 11 10 2 0 4 -4 4
-10z m-30 -136 c-14 -36 -12 -64 5 -98 18 -35 18 -36 2 -36 -32 0 -52 131 -25
158 18 18 28 4 18 -24z m30 -50 c0 -27 -4 -43 -10 -39 -17 11 -11 85 7 85 2 0
3 -21 3 -46z"/>
<path d="M5278 1545 c-2 -95 -2 -180 0 -189 2 -10 13 -16 31 -16 14 0 37 -7
49 -16 l22 -15 1 98 c0 54 3 137 5 184 l4 86 -55 20 -54 20 -3 -172z m41 133
c0 -7 -4 -22 -9 -33 -7 -17 -9 -15 -9 13 -1 17 4 32 9 32 6 0 10 -6 9 -12z
m47 -38 c2 -34 1 -34 -3 -3 -2 18 -11 34 -21 37 -12 3 -11 4 3 3 16 -2 20 -10
21 -37z m-29 -66 c-3 -3 -12 -4 -19 -1 -8 3 -5 6 6 6 11 1 17 -2 13 -5z m-2
-31 c-21 -51 -19 -58 9 -28 15 17 25 25 22 19 -3 -6 -6 -47 -8 -90 -1 -43 -3
-73 -6 -66 -2 7 -9 12 -15 12 -30 0 -50 106 -28 148 14 26 37 30 26 5z"/>
<path d="M920 1640 c0 -25 -27 -27 -33 -2 -4 13 -5 12 -6 -5 0 -13 7 -27 18
-33 18 -9 20 -20 18 -95 -1 -51 -6 -84 -12 -82 -5 2 -10 20 -10 40 0 19 -3 39
-7 43 -5 4 -8 -14 -8 -40 0 -39 4 -49 19 -53 11 -3 22 -12 24 -22 3 -9 5 48 6
127 0 78 -1 142 -4 142 -3 0 -5 -9 -5 -20z"/>
<path d="M882 1550 c0 -14 2 -19 5 -12 2 6 2 18 0 25 -3 6 -5 1 -5 -13z"/>
<path d="M4105 1560 c-4 -6 -3 -16 3 -22 13 -13 23 4 13 21 -7 10 -10 10 -16
1z"/>
<path d="M5230 1526 c0 -31 6 -34 13 -6 3 11 1 23 -4 26 -5 3 -9 -6 -9 -20z"/>
<path d="M893 1353 c9 -9 19 -14 23 -11 10 10 -6 28 -24 28 -15 0 -15 -1 1
-17z"/>
<path d="M1930 1347 c0 -20 37 -51 45 -38 7 13 -14 45 -32 49 -7 1 -13 -4 -13
-11z"/>
<path d="M3070 1330 c0 -5 6 -13 13 -17 8 -4 17 -17 21 -28 7 -18 8 -18 19 5
10 20 10 28 1 38 -15 14 -54 16 -54 2z"/>
<path d="M4165 1320 c-8 -13 3 -30 21 -30 8 0 14 -4 14 -10 0 -5 -8 -7 -17 -4
-10 2 -8 -1 4 -7 18 -9 25 -8 38 5 15 15 15 17 0 32 -9 9 -19 14 -22 10 -3 -3
-12 -1 -19 5 -8 7 -14 7 -19 -1z"/>
<path d="M5280 1305 c0 -8 9 -17 20 -20 11 -3 20 -13 20 -21 0 -8 5 -14 11
-14 5 0 7 5 4 10 -3 6 1 10 9 10 9 0 16 7 16 16 0 8 -4 13 -9 10 -5 -4 -11 -1
-13 5 -6 17 -58 21 -58 4z"/>
<path d="M1930 1282 c0 -10 14 -26 30 -35 29 -17 30 -17 30 0 0 10 -14 26 -30
35 -28 16 -30 16 -30 0z"/>
<path d="M905 1270 c10 -11 20 -20 22 -20 1 0 3 9 3 20 0 14 -7 20 -22 20 -20
0 -21 -1 -3 -20z"/>
<path d="M3060 1261 c0 -12 10 -23 28 -29 15 -5 35 -13 45 -17 13 -5 17 -2 17
14 0 12 -6 21 -15 21 -9 0 -29 7 -45 15 -28 15 -30 14 -30 -4z"/>
<path d="M4150 1255 c0 -18 20 -31 68 -42 39 -10 42 -9 42 9 0 14 -5 18 -18
14 -10 -3 -34 3 -55 13 -27 14 -37 15 -37 6z"/>
<path d="M5273 1239 c3 -14 17 -26 43 -36 74 -27 72 -27 67 1 -4 20 -8 24 -18
16 -10 -8 -15 -8 -20 0 -4 7 -16 10 -26 7 -12 -3 -20 2 -24 14 -9 26 -26 24
-22 -2z"/>
</g>
</svg>
