<?xml version="1.0"?>
<svg width="175.216" height="175.552" xmlns="http://www.w3.org/2000/svg" xmlns:svg="http://www.w3.org/2000/svg">
 <defs>
  <linearGradient id="b" x1="0.49" x2="0.49" y1="0.06" y2="0.91">
   <stop offset="0" stop-color="#57d163"/>
   <stop offset="1" stop-color="#23b33a"/>
  </linearGradient>
  <filter color-interpolation-filters="sRGB" height="1.11" id="a" width="1.11" x="-0.06" y="-0.06">
   <feGaussianBlur stdDeviation="3.53"/>
  </filter>
 </defs>
 <g class="layer">
  <title>Layer 1</title>
  <path d="m54.53,138.45l2.24,1.32c9.38,5.57 20.15,8.52 31.12,8.53l0.03,0c33.7,0 61.14,-27.43 61.15,-61.14c0,-16.33 -6.35,-31.69 -17.9,-43.25a60.75,60.75 0 0 0 -43.23,-17.93c-33.73,0 -61.17,27.43 -61.18,61.13a60.98,60.98 0 0 0 9.35,32.54l1.46,2.31l-6.18,22.56l23.14,-6.07zm-40.81,23.54l10.44,-38.11c-6.44,-11.15 -9.82,-23.81 -9.82,-36.77c0.02,-40.56 33.02,-73.55 73.58,-73.55c19.68,0.01 38.15,7.67 52.04,21.57s21.54,32.38 21.53,52.04c-0.01,40.55 -33.02,73.55 -73.57,73.55l-0.04,0c-12.31,0 -24.41,-3.09 -35.15,-8.95l-39.01,10.22zm0,0" fill="#b3b3b3" filter="url(#a)" id="svg_1"/>
  <path d="m12.97,161.24l10.44,-38.12a73.42,73.42 0 0 1 -9.83,-36.77c0.02,-40.55 33.03,-73.55 73.58,-73.55c19.68,0.01 38.16,7.67 52.05,21.57s21.54,32.39 21.53,52.04c-0.02,40.55 -33.03,73.55 -73.58,73.55l-0.03,0c-12.31,0 -24.41,-3.09 -35.16,-8.95l-39,10.23z" fill="#fff" id="svg_2"/>
  <path d="m87.18,25.23c-33.73,0 -61.16,27.42 -61.17,61.13a60.98,60.98 0 0 0 9.35,32.53l1.45,2.31l-6.18,22.56l23.15,-6.07l2.23,1.33c9.39,5.57 20.15,8.52 31.13,8.52l0.02,0c33.71,0 61.14,-27.42 61.15,-61.13a60.75,60.75 0 0 0 -17.89,-43.25a60.75,60.75 0 0 0 -43.24,-17.93z" fill="url(#linearGradient1780)" id="svg_3"/>
  <path d="m87.18,25.23c-33.73,0 -61.16,27.42 -61.17,61.13a60.98,60.98 0 0 0 9.35,32.53l1.45,2.31l-6.18,22.56l23.15,-6.07l2.23,1.33c9.39,5.57 20.15,8.52 31.13,8.52l0.02,0c33.71,0 61.14,-27.42 61.15,-61.13a60.75,60.75 0 0 0 -17.89,-43.25a60.75,60.75 0 0 0 -43.24,-17.93z" fill="url(#b)" id="svg_4"/>
  <path d="m68.77,55.6c-1.38,-3.06 -2.83,-3.12 -4.13,-3.17l-3.53,-0.05c-1.22,0 -3.22,0.46 -4.9,2.3s-6.44,6.29 -6.44,15.34s6.59,17.78 7.51,19.01s12.72,20.38 31.41,27.75c15.52,6.12 18.68,4.91 22.06,4.6s10.87,-4.45 12.4,-8.74s1.54,-7.97 1.08,-8.74s-1.69,-1.23 -3.53,-2.15s-10.87,-5.36 -12.56,-5.98s-2.91,-0.92 -4.14,0.92s-4.74,5.98 -5.82,7.21s-2.14,1.38 -3.98,0.46s-7.76,-2.86 -14.78,-9.12c-5.47,-4.88 -9.16,-10.89 -10.23,-12.73s-0.12,-2.84 0.81,-3.75c0.82,-0.83 1.83,-2.15 2.76,-3.22s1.22,-1.84 1.83,-3.07s0.31,-2.3 -0.15,-3.22s-4.03,-10.01 -5.67,-13.65" fill="#fff" fill-rule="evenodd" id="svg_5"/>
 </g>
</svg>